STARTFONT 2.1
FONT -FontForge-NewYork_26-Regular-R-Normal--22-220-72-72-P-228-MacRoman-0
SIZE 22 72 72
FONTBOUNDINGBOX 19 22 0 -4
COMMENT "Generated by fontforge, http://fontforge.sourceforge.net"
STARTPROPERTIES 31
FOUNDRY "FontForge"
FAMILY_NAME "NewYork_26"
WEIGHT_NAME "Regular"
SLANT "R"
SETWIDTH_NAME "Normal"
ADD_STYLE_NAME ""
PIXEL_SIZE 22
POINT_SIZE 220
RESOLUTION_X 72
RESOLUTION_Y 72
SPACING "P"
AVERAGE_WIDTH 228
CHARSET_REGISTRY "MacRoman"
CHARSET_ENCODING "0"
FONTNAME_REGISTRY ""
CHARSET_COLLECTIONS "MacRoman"
FONT_NAME "NewYork_26"
FACE_NAME "NewYork_26"
COPYRIGHT ""
FONT_VERSION "001.000"
FONT_ASCENT 18
FONT_DESCENT 4
UNDERLINE_POSITION -2
UNDERLINE_THICKNESS 2
X_HEIGHT 10
CAP_HEIGHT 15
RAW_ASCENT 800
RAW_DESCENT 200
NORM_SPACE 6
AVG_LOWERCASE_WIDTH 243
AVG_UPPERCASE_WIDTH 203
ENDPROPERTIES
CHARS 179
STARTCHAR uni0000
ENCODING 0
SWIDTH 0 0
DWIDTH 0 0
BBX 1 1 0 0
BITMAP
00
ENDCHAR
STARTCHAR uni0002
ENCODING 2
SWIDTH 0 0
DWIDTH 0 0
BBX 1 1 0 0
BITMAP
00
ENDCHAR
STARTCHAR uni0003
ENCODING 3
SWIDTH 0 0
DWIDTH 255 0
BBX 1 1 0 0
BITMAP
00
ENDCHAR
STARTCHAR uni0004
ENCODING 4
SWIDTH 0 0
DWIDTH 0 0
BBX 1 1 0 0
BITMAP
00
ENDCHAR
STARTCHAR uni0005
ENCODING 5
SWIDTH 0 0
DWIDTH 255 0
BBX 1 1 0 0
BITMAP
00
ENDCHAR
STARTCHAR uni0006
ENCODING 6
SWIDTH 0 0
DWIDTH 255 0
BBX 1 1 0 0
BITMAP
00
ENDCHAR
STARTCHAR uni0008
ENCODING 8
SWIDTH 0 0
DWIDTH 255 0
BBX 1 1 0 0
BITMAP
00
ENDCHAR
STARTCHAR uni000A
ENCODING 10
SWIDTH 0 0
DWIDTH 255 0
BBX 1 1 0 0
BITMAP
00
ENDCHAR
STARTCHAR uni000B
ENCODING 11
SWIDTH 0 0
DWIDTH 255 0
BBX 1 1 0 0
BITMAP
00
ENDCHAR
STARTCHAR uni000C
ENCODING 12
SWIDTH 0 0
DWIDTH 255 0
BBX 1 1 0 0
BITMAP
00
ENDCHAR
STARTCHAR uni000D
ENCODING 13
SWIDTH 0 0
DWIDTH 0 0
BBX 1 1 0 0
BITMAP
00
ENDCHAR
STARTCHAR uni000E
ENCODING 14
SWIDTH 0 0
DWIDTH 255 0
BBX 1 1 0 0
BITMAP
00
ENDCHAR
STARTCHAR space
ENCODING 32
SWIDTH 250 0
DWIDTH 6 0
BBX 1 1 6 -4
BITMAP
00
ENDCHAR
STARTCHAR exclam
ENCODING 33
SWIDTH 250 0
DWIDTH 6 0
BBX 1 16 3 0
BITMAP
80
80
80
80
80
80
80
80
80
80
80
80
00
00
80
80
ENDCHAR
STARTCHAR quotedbl
ENCODING 34
SWIDTH 416 0
DWIDTH 10 0
BBX 5 4 2 12
BITMAP
88
88
88
88
ENDCHAR
STARTCHAR numbersign
ENCODING 35
SWIDTH 500 0
DWIDTH 16 0
BBX 11 9 2 7
BITMAP
0880
0880
7FE0
1100
1100
1100
FFC0
2200
2200
ENDCHAR
STARTCHAR dollar
ENCODING 36
SWIDTH 500 0
DWIDTH 12 0
BBX 9 19 1 -2
BITMAP
0800
3E00
6B00
C900
C800
C800
E800
7800
3C00
1E00
0F00
0B80
0980
0980
8980
CB00
7E00
0800
0800
ENDCHAR
STARTCHAR percent
ENCODING 37
SWIDTH 666 0
DWIDTH 20 0
BBX 14 16 2 0
BITMAP
37E0
4820
CC40
CC40
CC80
4880
3100
0100
0200
0230
0448
04CC
08CC
08CC
1048
1030
ENDCHAR
STARTCHAR ampersand
ENCODING 38
SWIDTH 666 0
DWIDTH 16 0
BBX 15 16 1 0
BITMAP
0C00
1A00
3200
3200
3400
1800
1800
2C00
460C
C310
C1A0
C0C0
C0E0
E170
7E3A
3C1C
ENDCHAR
STARTCHAR quotesingle
ENCODING 39
SWIDTH 250 0
DWIDTH 6 0
BBX 1 4 2 12
BITMAP
80
80
80
80
ENDCHAR
STARTCHAR parenleft
ENCODING 40
SWIDTH 333 0
DWIDTH 10 0
BBX 5 18 2 -1
BITMAP
08
10
20
60
40
C0
C0
C0
C0
C0
C0
C0
C0
40
60
20
10
08
ENDCHAR
STARTCHAR parenright
ENCODING 41
SWIDTH 333 0
DWIDTH 10 0
BBX 5 18 3 -1
BITMAP
80
40
20
30
10
18
18
18
18
18
18
18
18
10
30
20
40
80
ENDCHAR
STARTCHAR asterisk
ENCODING 42
SWIDTH 333 0
DWIDTH 14 0
BBX 9 7 2 8
BITMAP
2200
1400
0800
FF80
0800
1400
2200
ENDCHAR
STARTCHAR plus
ENCODING 43
SWIDTH 500 0
DWIDTH 12 0
BBX 7 7 2 3
BITMAP
10
10
10
FE
10
10
10
ENDCHAR
STARTCHAR comma
ENCODING 44
SWIDTH 250 0
DWIDTH 6 0
BBX 2 4 2 -2
BITMAP
40
40
40
80
ENDCHAR
STARTCHAR hyphen
ENCODING 45
SWIDTH 416 0
DWIDTH 10 0
BBX 7 1 1 6
BITMAP
FE
ENDCHAR
STARTCHAR period
ENCODING 46
SWIDTH 250 0
DWIDTH 6 0
BBX 1 2 3 0
BITMAP
80
80
ENDCHAR
STARTCHAR slash
ENCODING 47
SWIDTH 416 0
DWIDTH 12 0
BBX 8 16 2 0
BITMAP
01
01
02
02
04
04
08
08
10
10
20
20
40
40
80
80
ENDCHAR
STARTCHAR zero
ENCODING 48
SWIDTH 500 0
DWIDTH 12 0
BBX 9 16 1 0
BITMAP
1C00
2200
4100
C180
C180
C180
C180
C180
C180
C180
C180
C180
C180
4100
2200
1C00
ENDCHAR
STARTCHAR one
ENCODING 49
SWIDTH 500 0
DWIDTH 12 0
BBX 6 16 3 0
BITMAP
10
30
F0
30
30
30
30
30
30
30
30
30
30
30
30
FC
ENDCHAR
STARTCHAR two
ENCODING 50
SWIDTH 500 0
DWIDTH 12 0
BBX 9 16 1 0
BITMAP
3E00
7F00
C380
8180
0180
0300
0300
0600
0C00
1800
3000
6000
4000
8080
FF80
FF80
ENDCHAR
STARTCHAR three
ENCODING 51
SWIDTH 500 0
DWIDTH 13 0
BBX 9 17 2 -2
BITMAP
3E00
4700
8300
0300
0200
0400
0800
1E00
2300
0180
0180
0180
0180
0100
8200
C400
7800
ENDCHAR
STARTCHAR four
ENCODING 52
SWIDTH 500 0
DWIDTH 12 0
BBX 10 15 1 0
BITMAP
0080
0180
0300
0600
0D00
1B00
3300
6300
C300
FFC0
0300
0300
0300
0300
07C0
ENDCHAR
STARTCHAR five
ENCODING 53
SWIDTH 500 0
DWIDTH 12 0
BBX 9 17 1 -2
BITMAP
FF00
FF00
8000
8000
F800
0E00
0300
0180
0180
0180
0180
0180
0180
0300
0600
0C00
F000
ENDCHAR
STARTCHAR six
ENCODING 54
SWIDTH 500 0
DWIDTH 12 0
BBX 9 15 1 0
BITMAP
0600
1800
3000
6000
4000
8000
9E00
A700
8380
8180
8180
8180
C180
6300
3C00
ENDCHAR
STARTCHAR seven
ENCODING 55
SWIDTH 500 0
DWIDTH 12 0
BBX 10 16 1 0
BITMAP
FFC0
FFC0
8080
0080
0100
0100
0200
0200
0400
0400
0800
0800
1000
1000
2000
2000
ENDCHAR
STARTCHAR eight
ENCODING 56
SWIDTH 500 0
DWIDTH 12 0
BBX 9 15 1 0
BITMAP
3C00
6200
C100
C100
E200
7400
3C00
1E00
2700
4380
8180
8180
8180
4300
3C00
ENDCHAR
STARTCHAR nine
ENCODING 57
SWIDTH 500 0
DWIDTH 12 0
BBX 10 15 1 0
BITMAP
1E00
2300
4180
C180
C0C0
C0C0
C0C0
62C0
3CC0
00C0
0180
0180
0300
0600
1800
ENDCHAR
STARTCHAR colon
ENCODING 58
SWIDTH 250 0
DWIDTH 6 0
BBX 1 10 3 0
BITMAP
80
80
00
00
00
00
00
00
80
80
ENDCHAR
STARTCHAR semicolon
ENCODING 59
SWIDTH 250 0
DWIDTH 6 0
BBX 2 12 2 -2
BITMAP
40
40
00
00
00
00
00
00
40
40
40
80
ENDCHAR
STARTCHAR less
ENCODING 60
SWIDTH 333 0
DWIDTH 8 0
BBX 5 9 2 2
BITMAP
08
10
20
40
80
40
20
10
08
ENDCHAR
STARTCHAR equal
ENCODING 61
SWIDTH 416 0
DWIDTH 11 0
BBX 8 4 2 4
BITMAP
FF
00
00
FF
ENDCHAR
STARTCHAR greater
ENCODING 62
SWIDTH 333 0
DWIDTH 8 0
BBX 5 9 2 2
BITMAP
80
40
20
10
08
10
20
40
80
ENDCHAR
STARTCHAR question
ENCODING 63
SWIDTH 416 0
DWIDTH 12 0
BBX 8 16 3 0
BITMAP
7C
C2
81
01
03
06
0C
18
10
30
20
20
00
00
20
20
ENDCHAR
STARTCHAR at
ENCODING 64
SWIDTH 666 0
DWIDTH 16 0
BBX 12 11 2 -1
BITMAP
1F80
6060
4020
8710
8890
9110
9310
8CE0
4000
6000
1C00
ENDCHAR
STARTCHAR A
ENCODING 65
SWIDTH 666 0
DWIDTH 16 0
BBX 14 16 1 0
BITMAP
0300
0300
0300
0580
0580
0580
08C0
08C0
08C0
1060
1FE0
1060
2030
2030
2030
F87C
ENDCHAR
STARTCHAR B
ENCODING 66
SWIDTH 500 0
DWIDTH 14 0
BBX 12 16 1 0
BITMAP
FF00
30C0
3060
3060
3060
3060
30C0
3F80
3060
3030
3030
3030
3030
3030
3060
FF80
ENDCHAR
STARTCHAR C
ENCODING 67
SWIDTH 500 0
DWIDTH 12 0
BBX 10 16 1 0
BITMAP
0F80
31C0
60C0
4040
C000
C000
C000
C000
C000
C000
C000
C000
4040
60C0
3180
0E00
ENDCHAR
STARTCHAR D
ENCODING 68
SWIDTH 583 0
DWIDTH 14 0
BBX 12 16 1 0
BITMAP
FE00
3180
30C0
3060
3020
3030
3030
3030
3030
3030
3030
3020
3060
30C0
3180
FE00
ENDCHAR
STARTCHAR E
ENCODING 69
SWIDTH 500 0
DWIDTH 12 0
BBX 11 16 0 0
BITMAP
FFC0
3060
3020
3000
3000
3000
3100
3F00
3100
3000
3000
3000
3000
3020
3060
FFC0
ENDCHAR
STARTCHAR F
ENCODING 70
SWIDTH 500 0
DWIDTH 12 0
BBX 11 16 0 0
BITMAP
FFC0
3060
3020
3000
3000
3000
3100
3F00
3100
3000
3000
3000
3000
3000
3000
FC00
ENDCHAR
STARTCHAR G
ENCODING 71
SWIDTH 500 0
DWIDTH 14 0
BBX 12 16 1 0
BITMAP
0FC0
30E0
6060
4020
C000
C000
C000
C000
C1F0
C060
C060
C060
4060
6060
30C0
0F00
ENDCHAR
STARTCHAR H
ENCODING 72
SWIDTH 583 0
DWIDTH 16 0
BBX 14 16 1 0
BITMAP
FCFC
3030
3030
3030
3030
3030
3030
3FF0
3030
3030
3030
3030
3030
3030
3030
FCFC
ENDCHAR
STARTCHAR I
ENCODING 73
SWIDTH 333 0
DWIDTH 10 0
BBX 6 16 2 0
BITMAP
FC
30
30
30
30
30
30
30
30
30
30
30
30
30
30
FC
ENDCHAR
STARTCHAR J
ENCODING 74
SWIDTH 416 0
DWIDTH 10 0
BBX 9 20 1 -4
BITMAP
1F80
0600
0600
0600
0600
0600
0600
0600
0600
0600
0600
0600
0600
0600
0600
0600
0600
8600
C400
7800
ENDCHAR
STARTCHAR K
ENCODING 75
SWIDTH 583 0
DWIDTH 16 0
BBX 13 16 1 0
BITMAP
FCF8
3020
3040
3080
3100
3200
3400
3800
3800
3400
3200
3100
3080
3040
3020
FCF8
ENDCHAR
STARTCHAR L
ENCODING 76
SWIDTH 500 0
DWIDTH 14 0
BBX 12 16 1 0
BITMAP
FC00
3000
3000
3000
3000
3000
3000
3000
3000
3000
3000
3000
3000
3010
3030
FFE0
ENDCHAR
STARTCHAR M
ENCODING 77
SWIDTH 666 0
DWIDTH 20 0
BBX 18 16 1 0
BITMAP
F807C0
380700
380B00
2C0B00
2C0B00
2C1300
261300
261300
262300
232300
232300
234300
21C300
21C300
208300
F88FC0
ENDCHAR
STARTCHAR N
ENCODING 78
SWIDTH 583 0
DWIDTH 16 0
BBX 14 16 1 0
BITMAP
F07C
3810
3810
2C10
2C10
2610
2610
2310
2310
2190
2190
20D0
20D0
2070
2070
F830
ENDCHAR
STARTCHAR O
ENCODING 79
SWIDTH 583 0
DWIDTH 13 0
BBX 11 16 1 0
BITMAP
0E00
3180
60C0
4040
C060
C060
C060
C060
C060
C060
C060
C060
4040
60C0
3180
0E00
ENDCHAR
STARTCHAR P
ENCODING 80
SWIDTH 500 0
DWIDTH 14 0
BBX 12 16 1 0
BITMAP
FF80
30E0
3060
3030
3030
3030
3030
3060
30E0
3F80
3000
3000
3000
3000
3000
FC00
ENDCHAR
STARTCHAR Q
ENCODING 81
SWIDTH 583 0
DWIDTH 13 0
BBX 11 18 1 -2
BITMAP
0E00
3180
60C0
4040
C060
C060
C060
C060
C060
C060
C060
C060
4040
60C0
3180
0E00
0300
01C0
ENDCHAR
STARTCHAR R
ENCODING 82
SWIDTH 500 0
DWIDTH 14 0
BBX 13 16 0 0
BITMAP
FF80
30E0
3070
3030
3030
3030
3070
30E0
3FC0
3300
3180
3180
30C0
3060
3030
FC18
ENDCHAR
STARTCHAR S
ENCODING 83
SWIDTH 416 0
DWIDTH 12 0
BBX 9 16 1 0
BITMAP
3E00
6300
C100
C000
C000
E000
7000
3C00
0E00
0700
0380
0180
0180
8180
C300
7E00
ENDCHAR
STARTCHAR T
ENCODING 84
SWIDTH 500 0
DWIDTH 13 0
BBX 12 16 0 0
BITMAP
FFF0
C630
8610
0600
0600
0600
0600
0600
0600
0600
0600
0600
0600
0600
0600
1F80
ENDCHAR
STARTCHAR U
ENCODING 85
SWIDTH 583 0
DWIDTH 16 0
BBX 14 16 1 0
BITMAP
FC7C
3010
3010
3010
3010
3010
3010
3010
3010
3010
3010
3010
3010
3010
1820
07C0
ENDCHAR
STARTCHAR V
ENCODING 86
SWIDTH 583 0
DWIDTH 16 0
BBX 14 16 1 0
BITMAP
FC7C
3010
3010
3010
1820
1820
1820
0C40
0C40
0C40
0680
0680
0680
0300
0300
0300
ENDCHAR
STARTCHAR W
ENCODING 87
SWIDTH 750 0
DWIDTH 20 0
BBX 17 16 1 0
BITMAP
FBEF80
318200
318200
318200
18C400
18C400
18C400
18C400
0D6800
0D6800
0D6800
0D6800
063000
063000
063000
063000
ENDCHAR
STARTCHAR X
ENCODING 88
SWIDTH 500 0
DWIDTH 13 0
BBX 12 16 0 0
BITMAP
FDF0
3040
3040
1880
1880
0D00
0D00
0600
0600
0F00
0B00
1180
1180
20C0
20C0
FBF0
ENDCHAR
STARTCHAR Y
ENCODING 89
SWIDTH 500 0
DWIDTH 16 0
BBX 14 16 1 0
BITMAP
FC7C
3010
1820
1820
0C40
0C40
0680
0680
0300
0300
0300
0300
0300
0300
0300
0FC0
ENDCHAR
STARTCHAR Z
ENCODING 90
SWIDTH 416 0
DWIDTH 12 0
BBX 10 16 1 0
BITMAP
7FC0
C0C0
8180
0180
0300
0600
0600
0C00
0C00
1800
3000
3000
6000
6040
C0C0
FF80
ENDCHAR
STARTCHAR bracketleft
ENCODING 91
SWIDTH 250 0
DWIDTH 8 0
BBX 3 18 2 -1
BITMAP
E0
80
80
80
80
80
80
80
80
80
80
80
80
80
80
80
80
E0
ENDCHAR
STARTCHAR backslash
ENCODING 92
SWIDTH 416 0
DWIDTH 12 0
BBX 8 16 2 0
BITMAP
80
80
40
40
20
20
10
10
08
08
04
04
02
02
01
01
ENDCHAR
STARTCHAR bracketright
ENCODING 93
SWIDTH 250 0
DWIDTH 8 0
BBX 3 18 3 -1
BITMAP
E0
20
20
20
20
20
20
20
20
20
20
20
20
20
20
20
20
E0
ENDCHAR
STARTCHAR asciicircum
ENCODING 94
SWIDTH 333 0
DWIDTH 10 0
BBX 5 3 2 12
BITMAP
20
50
88
ENDCHAR
STARTCHAR underscore
ENCODING 95
SWIDTH 500 0
DWIDTH 12 0
BBX 12 1 0 0
BITMAP
FFF0
ENDCHAR
STARTCHAR grave
ENCODING 96
SWIDTH 250 0
DWIDTH 6 0
BBX 3 3 1 12
BITMAP
80
40
20
ENDCHAR
STARTCHAR a
ENCODING 97
SWIDTH 416 0
DWIDTH 12 0
BBX 11 11 1 0
BITMAP
1E00
6700
C300
8300
0F00
3300
6300
C300
C320
E7C0
7980
ENDCHAR
STARTCHAR b
ENCODING 98
SWIDTH 500 0
DWIDTH 13 0
BBX 10 16 1 0
BITMAP
2000
6000
E000
6000
6000
6600
6F80
7180
60C0
60C0
60C0
60C0
60C0
6080
7180
4E00
ENDCHAR
STARTCHAR c
ENCODING 99
SWIDTH 416 0
DWIDTH 12 0
BBX 8 11 2 0
BITMAP
1E
63
41
C0
C0
C0
C0
C0
61
7E
1C
ENDCHAR
STARTCHAR d
ENCODING 100
SWIDTH 500 0
DWIDTH 12 0
BBX 10 16 1 0
BITMAP
0180
0380
0180
0180
0180
1D80
6380
4180
C180
C180
C180
C180
C180
6380
7DC0
1980
ENDCHAR
STARTCHAR e
ENCODING 101
SWIDTH 416 0
DWIDTH 12 0
BBX 9 11 1 0
BITMAP
1C00
6300
4180
C180
FF80
C000
C000
C080
6100
7F00
1C00
ENDCHAR
STARTCHAR f
ENCODING 102
SWIDTH 333 0
DWIDTH 10 0
BBX 9 16 1 0
BITMAP
0F00
1180
3080
3000
3000
7C00
3000
3000
3000
3000
3000
3000
3000
3000
3000
FC00
ENDCHAR
STARTCHAR g
ENCODING 103
SWIDTH 416 0
DWIDTH 14 0
BBX 10 15 2 -4
BITMAP
1EC0
2300
6180
6180
6180
7100
3E00
7C00
C000
FF80
7FC0
80C0
80C0
C180
7E00
ENDCHAR
STARTCHAR h
ENCODING 104
SWIDTH 500 0
DWIDTH 16 0
BBX 13 16 1 0
BITMAP
1000
3000
7000
3000
3000
3380
37C0
38E0
3060
3060
3060
3060
3060
3060
3060
FDF8
ENDCHAR
STARTCHAR i
ENCODING 105
SWIDTH 333 0
DWIDTH 8 0
BBX 6 16 1 0
BITMAP
30
30
00
00
00
10
30
70
30
30
30
30
30
30
30
FC
ENDCHAR
STARTCHAR j
ENCODING 106
SWIDTH 250 0
DWIDTH 8 0
BBX 4 20 1 -4
BITMAP
30
30
00
00
00
10
30
70
30
30
30
30
30
30
30
30
30
30
20
C0
ENDCHAR
STARTCHAR k
ENCODING 107
SWIDTH 500 0
DWIDTH 14 0
BBX 12 16 1 0
BITMAP
1000
3000
7000
3000
3000
33E0
3080
3100
3200
3400
3C00
3600
3300
3180
30C0
FDF0
ENDCHAR
STARTCHAR l
ENCODING 108
SWIDTH 333 0
DWIDTH 8 0
BBX 6 16 1 0
BITMAP
10
30
70
30
30
30
30
30
30
30
30
30
30
30
30
FC
ENDCHAR
STARTCHAR m
ENCODING 109
SWIDTH 666 0
DWIDTH 20 0
BBX 18 11 1 0
BITMAP
131C00
37BE00
79C700
30C300
30C300
30C300
30C300
30C300
30C300
30C300
FBEFC0
ENDCHAR
STARTCHAR n
ENCODING 110
SWIDTH 500 0
DWIDTH 16 0
BBX 13 11 1 0
BITMAP
1380
37C0
78E0
3060
3060
3060
3060
3060
3060
3060
FDF8
ENDCHAR
STARTCHAR o
ENCODING 111
SWIDTH 416 0
DWIDTH 12 0
BBX 9 11 1 0
BITMAP
1C00
6300
4100
C180
C180
C180
C180
C180
4100
6300
1C00
ENDCHAR
STARTCHAR p
ENCODING 112
SWIDTH 500 0
DWIDTH 14 0
BBX 11 15 1 -4
BITMAP
1380
37C0
78C0
3060
3060
3060
3060
3060
3060
38C0
3700
3000
3000
3000
FC00
ENDCHAR
STARTCHAR q
ENCODING 113
SWIDTH 500 0
DWIDTH 14 0
BBX 11 15 2 -4
BITMAP
1C80
6380
4180
C180
C180
C180
C180
C180
6180
7F80
1D80
0180
0180
0180
07E0
ENDCHAR
STARTCHAR r
ENCODING 114
SWIDTH 416 0
DWIDTH 12 0
BBX 10 11 1 0
BITMAP
1380
35C0
78C0
3000
3000
3000
3000
3000
3000
3000
FC00
ENDCHAR
STARTCHAR s
ENCODING 115
SWIDTH 416 0
DWIDTH 10 0
BBX 8 11 1 0
BITMAP
3E
43
C1
E0
78
1E
07
03
81
E2
7C
ENDCHAR
STARTCHAR t
ENCODING 116
SWIDTH 333 0
DWIDTH 8 0
BBX 7 14 1 0
BITMAP
20
20
60
F8
60
60
60
60
60
60
60
62
7C
38
ENDCHAR
STARTCHAR u
ENCODING 117
SWIDTH 500 0
DWIDTH 14 0
BBX 11 11 1 0
BITMAP
E1C0
60C0
60C0
60C0
60C0
60C0
60C0
60C0
61E0
32C0
1C80
ENDCHAR
STARTCHAR v
ENCODING 118
SWIDTH 416 0
DWIDTH 14 0
BBX 13 11 0 0
BITMAP
FCF8
3020
3040
1840
1880
0C80
0D00
0700
0700
0200
0200
ENDCHAR
STARTCHAR w
ENCODING 119
SWIDTH 583 0
DWIDTH 18 0
BBX 17 11 0 0
BITMAP
FBCF80
318200
318200
18C400
18C400
0CC800
0D6800
057000
067000
022000
022000
ENDCHAR
STARTCHAR x
ENCODING 120
SWIDTH 500 0
DWIDTH 12 0
BBX 10 11 1 0
BITMAP
F7C0
6100
3200
1A00
1C00
0C00
1600
1300
2300
2180
FBC0
ENDCHAR
STARTCHAR y
ENCODING 121
SWIDTH 500 0
DWIDTH 14 0
BBX 13 15 0 -4
BITMAP
FCF8
3020
3020
1840
1840
0C80
0C80
0700
0700
0200
0200
0400
0C00
3800
3000
ENDCHAR
STARTCHAR z
ENCODING 122
SWIDTH 416 0
DWIDTH 10 0
BBX 9 12 0 0
BITMAP
2000
7F80
8300
0600
0600
0C00
1800
3000
3000
6080
C180
FF00
ENDCHAR
STARTCHAR braceleft
ENCODING 123
SWIDTH 333 0
DWIDTH 10 0
BBX 6 19 1 -2
BITMAP
0C
10
20
60
60
60
60
60
40
80
40
60
60
60
60
60
20
10
0C
ENDCHAR
STARTCHAR bar
ENCODING 124
SWIDTH 166 0
DWIDTH 6 0
BBX 1 19 2 -2
BITMAP
80
80
80
80
80
80
80
80
80
80
80
80
80
80
80
80
80
80
80
ENDCHAR
STARTCHAR braceright
ENCODING 125
SWIDTH 333 0
DWIDTH 10 0
BBX 6 19 2 -2
BITMAP
C0
20
10
18
18
18
18
18
08
04
08
18
18
18
18
18
10
20
C0
ENDCHAR
STARTCHAR asciitilde
ENCODING 126
SWIDTH 333 0
DWIDTH 10 0
BBX 8 2 1 14
BITMAP
71
8E
ENDCHAR
STARTCHAR uni007F
ENCODING 127
SWIDTH 0 0
DWIDTH 0 0
BBX 1 1 0 -4
BITMAP
00
ENDCHAR
STARTCHAR Adieresis
ENCODING 128
SWIDTH 666 0
DWIDTH 16 0
BBX 14 18 1 0
BITMAP
0840
0000
0300
0300
0300
0580
0580
0580
08C0
08C0
08C0
1060
1FE0
1060
2030
2030
2030
F87C
ENDCHAR
STARTCHAR Aring
ENCODING 129
SWIDTH 666 0
DWIDTH 16 0
BBX 14 18 1 0
BITMAP
0300
0480
0480
0300
0300
0580
0580
0580
08C0
08C0
08C0
1060
1FE0
1060
2030
2030
2030
F87C
ENDCHAR
STARTCHAR Ccedilla
ENCODING 130
SWIDTH 500 0
DWIDTH 12 0
BBX 10 20 1 -4
BITMAP
0F80
31C0
60C0
4040
C000
C000
C000
C000
C000
C000
C000
C000
4040
60C0
3180
0E00
0400
0200
0200
0C00
ENDCHAR
STARTCHAR Eacute
ENCODING 131
SWIDTH 500 0
DWIDTH 12 0
BBX 11 18 0 0
BITMAP
0200
0400
FFC0
3060
3020
3000
3000
3000
3100
3F00
3100
3000
3000
3000
3000
3020
3060
FFC0
ENDCHAR
STARTCHAR Ntilde
ENCODING 132
SWIDTH 583 0
DWIDTH 16 0
BBX 14 18 1 0
BITMAP
1C40
2380
F07C
3810
3810
2C10
2C10
2610
2610
2310
2310
2190
2190
20D0
20D0
2070
2070
F830
ENDCHAR
STARTCHAR Odieresis
ENCODING 133
SWIDTH 583 0
DWIDTH 14 0
BBX 11 18 1 0
BITMAP
1100
0000
0E00
3180
60C0
4040
C060
C060
C060
C060
C060
C060
C060
C060
4040
60C0
3180
0E00
ENDCHAR
STARTCHAR Udieresis
ENCODING 134
SWIDTH 583 0
DWIDTH 16 0
BBX 14 18 1 0
BITMAP
0440
0000
FC7C
3010
3010
3010
3010
3010
3010
3010
3010
3010
3010
3010
3010
3010
1820
07C0
ENDCHAR
STARTCHAR aacute
ENCODING 135
SWIDTH 416 0
DWIDTH 12 0
BBX 11 15 1 0
BITMAP
0200
0400
0800
0000
1E00
6700
C300
8300
0F00
3300
6300
C300
C320
E7C0
7980
ENDCHAR
STARTCHAR agrave
ENCODING 136
SWIDTH 416 0
DWIDTH 12 0
BBX 11 15 1 0
BITMAP
1000
0800
0400
0000
1E00
6700
C300
8300
0F00
3300
6300
C300
C320
E7C0
7980
ENDCHAR
STARTCHAR acircumflex
ENCODING 137
SWIDTH 416 0
DWIDTH 12 0
BBX 11 15 1 0
BITMAP
0800
1400
2200
0000
1E00
6700
C300
8300
0F00
3300
6300
C300
C320
E7C0
7980
ENDCHAR
STARTCHAR adieresis
ENCODING 138
SWIDTH 416 0
DWIDTH 12 0
BBX 11 13 1 0
BITMAP
2200
0000
1E00
6700
C300
8300
0F00
3300
6300
C300
C320
E7C0
7980
ENDCHAR
STARTCHAR atilde
ENCODING 139
SWIDTH 416 0
DWIDTH 12 0
BBX 11 14 1 0
BITMAP
3880
4700
0000
1E00
6700
C300
8300
0F00
3300
6300
C300
C320
E7C0
7980
ENDCHAR
STARTCHAR aring
ENCODING 140
SWIDTH 416 0
DWIDTH 12 0
BBX 11 16 1 0
BITMAP
0C00
1200
1200
0C00
0000
1E00
6700
C300
8300
0F00
3300
6300
C300
C320
E7C0
7980
ENDCHAR
STARTCHAR ccedilla
ENCODING 141
SWIDTH 416 0
DWIDTH 11 0
BBX 8 15 1 -4
BITMAP
1E
63
41
C0
C0
C0
C0
C0
61
7E
1C
08
04
04
18
ENDCHAR
STARTCHAR eacute
ENCODING 142
SWIDTH 416 0
DWIDTH 12 0
BBX 9 15 1 0
BITMAP
0400
0800
1000
0000
1C00
6300
4180
C180
FF80
C000
C000
C080
6100
7F00
1C00
ENDCHAR
STARTCHAR egrave
ENCODING 143
SWIDTH 416 0
DWIDTH 12 0
BBX 9 15 1 0
BITMAP
1000
0800
0400
0000
1C00
6300
4180
C180
FF80
C000
C000
C080
6100
7F00
1C00
ENDCHAR
STARTCHAR ecircumflex
ENCODING 144
SWIDTH 416 0
DWIDTH 12 0
BBX 9 15 1 0
BITMAP
0800
1400
2200
0000
1C00
6300
4180
C180
FF80
C000
C000
C080
6100
7F00
1C00
ENDCHAR
STARTCHAR edieresis
ENCODING 145
SWIDTH 416 0
DWIDTH 12 0
BBX 9 13 1 0
BITMAP
2200
0000
1C00
6300
4180
C180
FF80
C000
C000
C080
6100
7F00
1C00
ENDCHAR
STARTCHAR iacute
ENCODING 146
SWIDTH 333 0
DWIDTH 8 0
BBX 6 15 1 0
BITMAP
10
20
40
00
10
30
70
30
30
30
30
30
30
30
FC
ENDCHAR
STARTCHAR igrave
ENCODING 147
SWIDTH 333 0
DWIDTH 8 0
BBX 6 15 1 0
BITMAP
20
10
08
00
10
30
70
30
30
30
30
30
30
30
FC
ENDCHAR
STARTCHAR icircumflex
ENCODING 148
SWIDTH 333 0
DWIDTH 8 0
BBX 6 15 1 0
BITMAP
10
28
44
00
10
30
70
30
30
30
30
30
30
30
FC
ENDCHAR
STARTCHAR idieresis
ENCODING 149
SWIDTH 333 0
DWIDTH 8 0
BBX 6 13 1 0
BITMAP
48
00
10
30
70
30
30
30
30
30
30
30
FC
ENDCHAR
STARTCHAR ntilde
ENCODING 150
SWIDTH 500 0
DWIDTH 16 0
BBX 13 15 1 0
BITMAP
0640
0980
0000
0000
1380
37C0
78E0
3060
3060
3060
3060
3060
3060
3060
FDF8
ENDCHAR
STARTCHAR oacute
ENCODING 151
SWIDTH 416 0
DWIDTH 12 0
BBX 9 15 1 0
BITMAP
0400
0800
1000
0000
1C00
6300
4100
C180
C180
C180
C180
C180
4100
6300
1C00
ENDCHAR
STARTCHAR ograve
ENCODING 152
SWIDTH 416 0
DWIDTH 12 0
BBX 9 15 1 0
BITMAP
1000
0800
0400
0000
1C00
6300
4100
C180
C180
C180
C180
C180
4100
6300
1C00
ENDCHAR
STARTCHAR ocircumflex
ENCODING 153
SWIDTH 416 0
DWIDTH 12 0
BBX 9 15 1 0
BITMAP
0800
1400
2200
0000
1C00
6300
4100
C180
C180
C180
C180
C180
4100
6300
1C00
ENDCHAR
STARTCHAR odieresis
ENCODING 154
SWIDTH 416 0
DWIDTH 12 0
BBX 9 13 1 0
BITMAP
2200
0000
1C00
6300
4100
C180
C180
C180
C180
C180
4100
6300
1C00
ENDCHAR
STARTCHAR otilde
ENCODING 155
SWIDTH 416 0
DWIDTH 12 0
BBX 9 14 1 0
BITMAP
1900
2600
0000
1C00
6300
4100
C180
C180
C180
C180
C180
4100
6300
1C00
ENDCHAR
STARTCHAR uacute
ENCODING 156
SWIDTH 500 0
DWIDTH 14 0
BBX 11 15 1 0
BITMAP
0200
0400
0800
0000
E1C0
60C0
60C0
60C0
60C0
60C0
60C0
60C0
61E0
32C0
1C80
ENDCHAR
STARTCHAR ugrave
ENCODING 157
SWIDTH 500 0
DWIDTH 14 0
BBX 11 15 1 0
BITMAP
0800
0400
0200
0000
E1C0
60C0
60C0
60C0
60C0
60C0
60C0
60C0
61E0
32C0
1C80
ENDCHAR
STARTCHAR ucircumflex
ENCODING 158
SWIDTH 500 0
DWIDTH 14 0
BBX 11 15 1 0
BITMAP
0400
0A00
1100
0000
E1C0
60C0
60C0
60C0
60C0
60C0
60C0
60C0
61E0
32C0
1C80
ENDCHAR
STARTCHAR udieresis
ENCODING 159
SWIDTH 500 0
DWIDTH 14 0
BBX 11 13 1 0
BITMAP
1100
0000
E1C0
60C0
60C0
60C0
60C0
60C0
60C0
60C0
61E0
32C0
1C80
ENDCHAR
STARTCHAR dagger
ENCODING 160
SWIDTH 333 0
DWIDTH 10 0
BBX 5 9 2 8
BITMAP
20
20
F8
20
20
20
20
20
20
ENDCHAR
STARTCHAR degree
ENCODING 161
SWIDTH 333 0
DWIDTH 12 0
BBX 4 4 3 12
BITMAP
60
90
90
60
ENDCHAR
STARTCHAR cent
ENCODING 162
SWIDTH 500 0
DWIDTH 10 0
BBX 8 15 1 -2
BITMAP
08
08
1E
6B
49
C8
C8
C8
C8
C8
69
7E
1C
08
08
ENDCHAR
STARTCHAR sterling
ENCODING 163
SWIDTH 500 0
DWIDTH 14 0
BBX 11 16 1 0
BITMAP
0F80
19C0
10C0
3000
3000
3000
3000
7E00
3000
3000
3000
3000
3000
3020
30E0
FFC0
ENDCHAR
STARTCHAR section
ENCODING 164
SWIDTH 416 0
DWIDTH 12 0
BBX 8 16 2 0
BITMAP
3E
63
C1
C0
E0
78
9E
87
E1
79
1E
07
03
83
C2
7C
ENDCHAR
STARTCHAR bullet
ENCODING 165
SWIDTH 333 0
DWIDTH 12 0
BBX 9 9 1 3
BITMAP
1C00
7F00
7F00
FF80
FF80
FF80
7F00
7F00
1C00
ENDCHAR
STARTCHAR paragraph
ENCODING 166
SWIDTH 583 0
DWIDTH 16 0
BBX 13 16 1 0
BITMAP
0FF8
3360
6360
4360
C360
C360
C360
6360
7F60
1F60
0360
0360
0360
0360
0360
0FF8
ENDCHAR
STARTCHAR germandbls
ENCODING 167
SWIDTH 416 0
DWIDTH 14 0
BBX 12 16 0 0
BITMAP
0780
08C0
1060
1060
3060
30C0
3380
30C0
3060
3030
3030
3030
3030
3060
30C0
E700
ENDCHAR
STARTCHAR registered
ENCODING 168
SWIDTH 500 0
DWIDTH 14 0
BBX 11 11 1 0
BITMAP
1F00
60C0
4040
9E20
9120
9E20
9120
9120
4040
60C0
1F00
ENDCHAR
STARTCHAR copyright
ENCODING 169
SWIDTH 500 0
DWIDTH 14 0
BBX 11 11 1 0
BITMAP
1F00
60C0
4040
8E20
9120
9020
9120
8E20
4040
60C0
1F00
ENDCHAR
STARTCHAR trademark
ENCODING 170
SWIDTH 500 0
DWIDTH 18 0
BBX 11 5 2 11
BITMAP
FA20
2360
22A0
2220
2220
ENDCHAR
STARTCHAR acute
ENCODING 171
SWIDTH 250 0
DWIDTH 6 0
BBX 3 3 2 13
BITMAP
20
40
80
ENDCHAR
STARTCHAR dieresis
ENCODING 172
SWIDTH 333 0
DWIDTH 10 0
BBX 5 1 2 15
BITMAP
88
ENDCHAR
STARTCHAR AE
ENCODING 174
SWIDTH 750 0
DWIDTH 20 0
BBX 18 16 1 0
BITMAP
01FF80
00E0C0
00E040
016000
016000
026000
026100
07FF00
046100
086000
086000
106000
106000
206040
2060C0
F9FF80
ENDCHAR
STARTCHAR Oslash
ENCODING 175
SWIDTH 583 0
DWIDTH 14 0
BBX 11 16 1 0
BITMAP
0E40
3180
60C0
4140
C160
C260
C260
C460
C460
C860
C860
D060
5040
60C0
3180
4E00
ENDCHAR
STARTCHAR yen
ENCODING 180
SWIDTH 500 0
DWIDTH 14 0
BBX 12 16 1 0
BITMAP
FDF0
3040
3040
1880
1880
0D00
0D00
0600
3FC0
0600
0600
3FC0
0600
0600
0600
1F80
ENDCHAR
STARTCHAR ordfeminine
ENCODING 187
SWIDTH 416 0
DWIDTH 12 0
BBX 8 10 2 6
BITMAP
78
CC
8C
1C
6C
CC
CD
76
00
FF
ENDCHAR
STARTCHAR ordmasculine
ENCODING 188
SWIDTH 416 0
DWIDTH 10 0
BBX 7 10 1 6
BITMAP
38
44
C6
C6
C6
C6
44
38
00
FE
ENDCHAR
STARTCHAR ae
ENCODING 190
SWIDTH 666 0
DWIDTH 18 0
BBX 15 11 1 0
BITMAP
1E70
678C
C306
8306
0FFE
3300
6300
C302
C384
E5FC
7870
ENDCHAR
STARTCHAR oslash
ENCODING 191
SWIDTH 416 0
DWIDTH 12 0
BBX 9 11 1 0
BITMAP
1C80
6300
4500
C580
C980
C980
C980
D180
5100
6300
9C00
ENDCHAR
STARTCHAR questiondown
ENCODING 192
SWIDTH 416 0
DWIDTH 12 0
BBX 8 16 2 0
BITMAP
08
08
00
00
08
08
08
18
10
30
60
C0
80
81
43
3E
ENDCHAR
STARTCHAR exclamdown
ENCODING 193
SWIDTH 250 0
DWIDTH 6 0
BBX 1 16 2 0
BITMAP
80
80
00
00
80
80
80
80
80
80
80
80
80
80
80
80
ENDCHAR
STARTCHAR guillemotleft
ENCODING 199
SWIDTH 500 0
DWIDTH 12 0
BBX 10 11 1 0
BITMAP
0440
0880
1100
2200
4400
8800
4400
2200
1100
0880
0440
ENDCHAR
STARTCHAR guillemotright
ENCODING 200
SWIDTH 500 0
DWIDTH 12 0
BBX 10 11 1 0
BITMAP
8800
4400
2200
1100
0880
0440
0880
1100
2200
4400
8800
ENDCHAR
STARTCHAR ellipsis
ENCODING 201
SWIDTH 666 0
DWIDTH 14 0
BBX 9 2 3 0
BITMAP
8880
8880
ENDCHAR
STARTCHAR Agrave
ENCODING 203
SWIDTH 666 0
DWIDTH 16 0
BBX 14 18 1 0
BITMAP
0200
0100
0080
0300
0300
0580
0580
0580
08C0
08C0
08C0
1060
1FE0
1060
2030
2030
2030
F87C
ENDCHAR
STARTCHAR Atilde
ENCODING 204
SWIDTH 666 0
DWIDTH 16 0
BBX 14 18 1 0
BITMAP
0640
0980
0000
0300
0300
0580
0580
0580
08C0
08C0
08C0
1060
1FE0
1060
2030
2030
2030
F87C
ENDCHAR
STARTCHAR Otilde
ENCODING 205
SWIDTH 583 0
DWIDTH 14 0
BBX 11 18 1 0
BITMAP
1900
2600
0000
0E00
3180
60C0
4040
C060
C060
C060
C060
C060
C060
C060
4040
60C0
3180
0E00
ENDCHAR
STARTCHAR OE
ENCODING 206
SWIDTH 833 0
DWIDTH 20 0
BBX 17 16 1 0
BITMAP
0FFF00
30C180
60C080
40C000
C0C000
C0C000
C0C400
C0FC00
C0C400
C0C000
C0C000
C0C000
40C000
60C080
30C180
0FFF00
ENDCHAR
STARTCHAR oe
ENCODING 207
SWIDTH 666 0
DWIDTH 18 0
BBX 16 11 1 0
BITMAP
1C38
62C6
4183
C183
C1FF
C180
C180
C180
41C1
63FE
1C38
ENDCHAR
STARTCHAR endash
ENCODING 208
SWIDTH 333 0
DWIDTH 8 0
BBX 6 1 1 6
BITMAP
FC
ENDCHAR
STARTCHAR emdash
ENCODING 209
SWIDTH 416 0
DWIDTH 14 0
BBX 13 1 0 6
BITMAP
FFF8
ENDCHAR
STARTCHAR quotedblleft
ENCODING 210
SWIDTH 416 0
DWIDTH 12 0
BBX 6 4 3 12
BITMAP
44
88
88
88
ENDCHAR
STARTCHAR quotedblright
ENCODING 211
SWIDTH 416 0
DWIDTH 12 0
BBX 6 4 3 12
BITMAP
44
44
44
88
ENDCHAR
STARTCHAR quoteleft
ENCODING 212
SWIDTH 250 0
DWIDTH 8 0
BBX 2 4 3 12
BITMAP
40
80
80
80
ENDCHAR
STARTCHAR quoteright
ENCODING 213
SWIDTH 250 0
DWIDTH 8 0
BBX 2 4 4 12
BITMAP
40
40
40
80
ENDCHAR
STARTCHAR lozenge
ENCODING 215
SWIDTH 750 0
DWIDTH 14 0
BBX 11 12 1 1
BITMAP
0400
0A00
1100
2080
4040
8020
8020
4040
2080
1100
0A00
0400
ENDCHAR
STARTCHAR ydieresis
ENCODING 216
SWIDTH 500 0
DWIDTH 14 0
BBX 13 18 0 -4
BITMAP
0880
0000
0000
FCF8
3020
3020
1840
1840
0C80
0C80
0700
0700
0200
0200
0400
0C00
3800
3000
ENDCHAR
STARTCHAR Ydieresis
ENCODING 217
SWIDTH 666 0
DWIDTH 10 0
BBX 10 4 0 2
BITMAP
C040
2080
1100
0E00
ENDCHAR
ENDFONT
